<svg width="25" height="25" viewBox="0 0 25 25" fill="none" xmlns="http://www.w3.org/2000/svg">
<path fill-rule="evenodd" clip-rule="evenodd" d="M12.5 3.38892C7.53145 3.38892 3.5 7.42037 3.5 12.3889C3.5 17.3575 7.53145 21.3889 12.5 21.3889C17.4588 21.3889 21.5 17.3575 21.5 12.3889C21.5 7.42037 17.4588 3.38892 12.5 3.38892ZM18.4447 7.53751C19.5184 8.84554 20.1627 10.5147 20.1822 12.3206C19.9284 12.2718 17.3904 11.7544 14.833 12.0765C14.7744 11.9496 14.7256 11.813 14.667 11.6763C14.5108 11.3054 14.3352 10.9247 14.1594 10.5635C16.9902 9.41172 18.2787 7.75226 18.4447 7.53751ZM12.5 4.71647C14.4523 4.71647 16.2386 5.44858 17.5955 6.64923C17.4588 6.84445 16.2972 8.39651 13.564 9.42145C12.3048 7.10801 10.9089 5.2143 10.6942 4.92146C11.27 4.7848 11.8753 4.71647 12.5 4.71647ZM9.22996 5.43881C9.43494 5.71213 10.8015 7.6156 12.0803 9.88023C8.48807 10.8369 5.31562 10.8173 4.97397 10.8173C5.4718 8.43556 7.08243 6.45399 9.22996 5.43881ZM4.80803 12.3987C4.80803 12.3206 4.80803 12.2425 4.80803 12.1644C5.13991 12.1741 8.86876 12.223 12.705 11.0711C12.9295 11.5006 13.1345 11.9399 13.3297 12.3791C13.2321 12.4084 13.1247 12.4377 13.0271 12.467C9.06399 13.7457 6.95553 17.2403 6.77983 17.5331C5.55965 16.1763 4.80803 14.3705 4.80803 12.3987ZM12.5 20.0809C10.7234 20.0809 9.08352 19.4757 7.78525 18.4605C7.92191 18.1774 9.48371 15.1709 13.8178 13.6579C13.8373 13.6481 13.8471 13.6481 13.8666 13.6384C14.9501 16.4399 15.3894 18.7923 15.5065 19.4659C14.5792 19.8661 13.564 20.0809 12.5 20.0809ZM16.7852 18.7631C16.7072 18.2945 16.2972 16.0494 15.2917 13.2869C17.7028 12.9062 19.8113 13.531 20.0749 13.6189C19.743 15.7566 18.513 17.6015 16.7852 18.7631Z" fill="#0D0700"/>
</svg>
