<svg width="33" height="33" viewBox="0 0 33 33" fill="none" xmlns="http://www.w3.org/2000/svg">
<path d="M16.4998 11.9946C16.6249 11.9946 16.7251 12.0325 16.8319 12.1392L23.4247 18.731C23.5338 18.8402 23.5692 18.9389 23.5692 19.0552C23.5692 19.1715 23.5338 19.2702 23.4247 19.3794C23.3206 19.4834 23.2181 19.5238 23.0838 19.5239C22.9493 19.5239 22.8462 19.4836 22.742 19.3794L22.7411 19.3784L16.9706 13.6401L16.4989 13.1714L10.2577 19.4126C10.154 19.5163 10.0654 19.5454 9.95786 19.5415C9.83217 19.5369 9.72396 19.4941 9.60922 19.3794C9.50508 19.2752 9.46469 19.1731 9.46469 19.0386C9.4647 18.9041 9.50507 18.8019 9.60922 18.6978L16.1678 12.1392C16.2746 12.0324 16.3748 11.9947 16.4998 11.9946Z" fill="#0D0700" stroke="#0D0700" stroke-width="1.33333"/>
</svg>
