<svg width="25" height="25" viewBox="0 0 25 25" fill="none" xmlns="http://www.w3.org/2000/svg">
<path fill-rule="evenodd" clip-rule="evenodd" d="M5 3.63159C4.17157 3.63159 3.5 4.30316 3.5 5.13159V20.1316C3.5 20.96 4.17157 21.6316 5 21.6316H20C20.8284 21.6316 21.5 20.96 21.5 20.1316V5.13159C21.5 4.30316 20.8284 3.63159 20 3.63159H5ZM9.02076 7.63431C9.02639 8.59056 8.31061 9.17978 7.46123 9.17556C6.66107 9.17134 5.96357 8.53431 5.96779 7.63572C5.97201 6.79056 6.63998 6.11134 7.50764 6.13103C8.38795 6.15072 9.02639 6.79619 9.02076 7.63431ZM12.7797 10.3934H10.2597H10.2583V18.9532H12.9217V18.7535C12.9217 18.3736 12.9214 17.9936 12.9211 17.6135C12.9203 16.5997 12.9194 15.5848 12.9246 14.5713C12.926 14.3252 12.9372 14.0693 13.0005 13.8344C13.2381 12.9569 14.0271 12.3902 14.9074 12.5295C15.4727 12.618 15.8467 12.9457 16.0042 13.4787C16.1013 13.8119 16.1449 14.1705 16.1491 14.5179C16.1605 15.5655 16.1589 16.6131 16.1573 17.6608C16.1567 18.0306 16.1561 18.4006 16.1561 18.7704V18.9518H18.828V18.7465C18.828 18.2945 18.8278 17.8426 18.8275 17.3907C18.827 16.2612 18.8264 15.1317 18.8294 14.0018C18.8308 13.4913 18.776 12.9879 18.6508 12.4943C18.4638 11.7602 18.0771 11.1527 17.4485 10.714C17.0027 10.4018 16.5133 10.2007 15.9663 10.1782C15.904 10.1756 15.8412 10.1722 15.7781 10.1688C15.4984 10.1537 15.2141 10.1383 14.9467 10.1923C14.1817 10.3455 13.5096 10.6957 13.0019 11.313C12.9429 11.3838 12.8852 11.4557 12.7991 11.563L12.7797 11.5873V10.3934ZM6.18164 18.956H8.83242V10.3989H6.18164V18.956Z" fill="#0D0700"/>
</svg>
