<svg width="71" height="37" viewBox="0 0 71 37" fill="none" xmlns="http://www.w3.org/2000/svg">
<g clip-path="url(#clip0_9216_63429)">
<path d="M67.4113 17.4703L67.3742 17.5075C67.6344 16.8013 68.1547 16.5411 68.6007 16.5411C69.2326 16.5411 69.7901 17.0243 69.7901 17.7305C69.7901 17.8792 69.7901 18.065 69.7158 18.288C68.4149 21.6332 65.6644 23.3429 62.9883 23.6031C61.7618 25.6845 59.7547 27.2084 56.8927 27.2084C52.8042 27.2084 50.983 23.9748 50.983 20.4438C50.983 16.0951 53.7335 11.2632 58.3423 11.2632C59.3458 11.2632 60.2007 11.4863 60.9069 11.7836C62.9883 12.5641 64.3264 15.2774 64.3264 18.1765C64.3264 19.1057 64.252 20.0349 64.029 20.927C65.4043 20.4438 66.7051 19.3287 67.4113 17.4703ZM59.6432 14.311V14.2739C58.8255 14.2739 58.3423 15.3517 58.3423 16.6526C58.3423 18.5482 59.383 20.2951 61.0184 20.927C61.2786 20.1093 61.3901 19.1801 61.3901 18.1022C61.3901 16.0208 60.7582 14.311 59.6432 14.311ZM56.9299 24.4951C57.9706 24.4951 59.0113 24.0491 59.829 23.1199C57.4131 22.042 55.8892 19.5146 55.8892 17.0986C55.8892 16.2809 56.0379 15.4261 56.2609 14.6827C54.7742 15.9093 53.9193 18.3252 53.9193 20.4438C53.9193 23.1942 55.2202 24.4951 56.9299 24.4951Z" fill="#0D0700"/>
<path d="M51.5568 17.47L51.5196 17.5072C51.7798 16.801 52.2258 16.5037 52.6718 16.5037C53.3037 16.5037 53.9355 17.0612 53.9355 17.7674C53.9355 17.9532 53.8984 18.1019 53.824 18.2877C52.3745 21.8187 50.2187 25.9444 46.7621 28.3603L46.6878 29.1037C46.2789 33.5639 44.0117 36.3886 41.1497 36.3886C38.9939 36.3886 37.7302 34.9019 37.7302 33.155C37.7302 29.9957 40.9638 28.8435 43.9745 26.9108C44.0488 26.1302 44.086 25.2382 44.1231 24.2346C42.6364 25.87 41.0382 26.5391 39.6258 26.5391C36.801 26.5391 34.4966 24.2346 34.4966 20.7037C34.4966 15.2771 38.0647 11.709 42.0417 11.709H42.0789C44.7922 11.709 47.6913 13.1585 47.6913 15.7603C47.6913 16.6152 47.3196 21.2612 47.0223 24.8665C49.0293 22.9709 50.7019 19.886 51.5568 17.47ZM40.0346 23.863C41.4099 23.863 43.2683 23.0081 44.4205 18.8081C44.6063 17.8789 44.7178 17.0612 44.6807 16.0948C44.4577 15.0913 43.6028 14.4966 42.3762 14.4966C39.8488 14.4966 37.4329 16.9125 37.4329 20.5922C37.4329 22.8223 38.4736 23.863 40.0346 23.863ZM41.447 33.6754H41.4842C42.2647 33.6754 43.1196 33.155 43.6771 29.8099C42.0417 30.7762 40.5178 31.7426 40.5178 32.8948C40.5178 33.378 40.8895 33.6754 41.447 33.6754Z" fill="#0D0700"/>
<path d="M35.1488 17.4703L35.1117 17.5075C35.3718 16.8013 35.8922 16.5411 36.3382 16.5411C36.9701 16.5411 37.5276 17.0243 37.5276 17.7305C37.5276 17.8792 37.5276 18.065 37.4533 18.288C36.1524 21.6332 33.4019 23.3429 30.7258 23.6031C29.4993 25.6845 27.4922 27.2084 24.6302 27.2084C20.5417 27.2084 18.7205 23.9748 18.7205 20.4438C18.7205 16.0951 21.4709 11.2632 26.0798 11.2632C27.0833 11.2632 27.9382 11.4863 28.6444 11.7836C30.7258 12.5641 32.0639 15.2774 32.0639 18.1765C32.0639 19.1057 31.9895 20.0349 31.7665 20.927C33.1418 20.4438 34.4426 19.3287 35.1488 17.4703ZM27.3807 14.311V14.2739C26.563 14.2739 26.0798 15.3517 26.0798 16.6526C26.0798 18.5482 27.1205 20.2951 28.7559 20.927C29.0161 20.1093 29.1276 19.1801 29.1276 18.1022C29.1276 16.0208 28.4957 14.311 27.3807 14.311ZM24.6674 24.4951C25.7081 24.4951 26.7488 24.0491 27.5665 23.1199C25.1506 22.042 23.6267 19.5146 23.6267 17.0986C23.6267 16.2809 23.7754 15.4261 23.9984 14.6827C22.5117 15.9093 21.6568 18.3252 21.6568 20.4438C21.6568 23.1942 22.9577 24.4951 24.6674 24.4951Z" fill="#0D0700"/>
<path d="M20.6096 16.2972C20.0892 16.2972 19.6432 16.5574 19.3458 17.2636C18.3795 19.7167 16.3723 23.8796 14.328 23.8796C13.0408 23.8796 12.0447 23.5885 11.0381 23.2943C10.0102 22.9939 8.97136 22.6902 7.60047 22.6902C7.11727 22.6902 6.44823 22.7646 5.81636 22.8761C7.71994 20.2803 8.43108 17.1366 9.12016 11.1943C7.8227 11.1117 6.76729 10.872 5.99801 10.6299C5.17636 18.1664 4.2433 21.04 0.835724 23.8796C0.389697 24.2513 0.166687 24.7717 0.166687 25.2921C0.166687 26.1098 0.872899 26.816 1.76496 26.816C2.06231 26.816 2.39682 26.7045 2.73134 26.5558C4.62696 25.7009 5.77919 25.4779 7.19161 25.4779C8.08978 25.4779 9.16452 25.7348 10.3152 26.0097C11.6406 26.3265 13.0667 26.6673 14.4396 26.6673C17.4502 26.6673 19.4202 23.731 21.6131 18.0441C21.7247 17.8583 21.7618 17.6353 21.7618 17.4494C21.7618 16.7432 21.2043 16.2972 20.6096 16.2972Z" fill="#0D0700"/>
<path fill-rule="evenodd" clip-rule="evenodd" d="M6.1866 9.09154C6.85969 9.32651 7.91051 9.60007 9.27294 9.681L9.49595 9.68089C13.6961 9.68089 16.4466 7.07907 16.4466 3.95688C16.4466 1.94976 14.8855 0.388672 12.6925 0.388672C9.75613 0.388672 7.71185 2.39579 6.67112 6.37286C5.37021 5.66665 4.47816 4.40291 4.03213 2.80465C3.80911 2.0241 3.32592 1.5409 2.65687 1.5409C1.83916 1.5409 1.31879 2.17278 1.31879 3.02766C1.31879 5.55515 3.28875 7.97112 6.18792 9.08619L6.1866 9.09154ZM9.71896 6.96756C10.2765 4.40291 11.1686 3.17634 12.358 3.17634C12.9899 3.17634 13.3987 3.54803 13.3987 4.21707C13.3987 5.44364 12.0978 6.89322 9.71896 6.96756Z" fill="#0D0700"/>
</g>
<defs>
<clipPath id="clip0_9216_63429">
<rect width="70" height="36" fill="white" transform="translate(0.166687 0.388672)"/>
</clipPath>
</defs>
</svg>
