<svg width="117" height="20" viewBox="0 0 117 20" fill="none" xmlns="http://www.w3.org/2000/svg">
<path fill-rule="evenodd" clip-rule="evenodd" d="M31.5594 0.24585L21.6941 19.5317H12.4277L16.5563 11.5388H16.3711C12.965 15.9604 7.88298 18.8711 0.641907 19.5317V11.6494C0.641907 11.6494 5.2742 11.3758 7.99739 8.51277H0.641907V0.246002H8.90867V7.0453L9.09421 7.04454L12.4724 0.246002H18.7243V7.00218L18.9097 7.00188L22.4146 0.24585H31.5594Z" fill="#0D0700"/>
<path d="M85.3563 17.4029H88.0187V2.12086H85.3563V17.4029Z" fill="#0D0700"/>
<path fill-rule="evenodd" clip-rule="evenodd" d="M70.6787 17.2469C71.2573 17.4874 71.8457 17.6077 72.4439 17.6077C73.4321 17.6077 74.3163 17.3672 75.0965 16.886C75.8767 16.405 76.4814 15.7418 76.9105 14.8966C77.3396 14.0449 77.5541 13.0793 77.5541 12.0001C77.5541 10.9208 77.3331 9.95536 76.891 9.10365C76.4488 8.25194 75.8344 7.59202 75.0477 7.1239C74.261 6.64929 73.367 6.41524 72.3658 6.42173C71.7287 6.42173 71.1176 6.54527 70.5323 6.79233C69.9472 7.03939 69.4596 7.39048 69.0695 7.84559C69.0394 7.88024 69.0102 7.91523 68.9818 7.95058V2.13067H66.3096V17.403H68.9623L68.9569 15.9763C69.0255 16.0604 69.0989 16.1426 69.1768 16.2229C69.5993 16.6586 70.1 16.9998 70.6787 17.2469ZM73.4094 14.7796C72.9737 15.0462 72.4763 15.1794 71.9172 15.1794C71.3645 15.1794 70.8574 15.0428 70.3958 14.7698C69.9342 14.4902 69.5669 14.1099 69.2938 13.6288C69.0272 13.1477 68.8939 12.6015 68.8939 11.9903C68.8875 11.3792 69.0174 10.8331 69.284 10.352C69.5571 9.86434 69.9244 9.48724 70.3861 9.22068C70.8477 8.94761 71.3581 8.81433 71.9172 8.82083C72.4763 8.81433 72.9737 8.94436 73.4094 9.21093C73.8514 9.47099 74.1895 9.84483 74.4236 10.3325C74.6641 10.8136 74.7844 11.3662 74.7844 11.9903C74.7844 12.6145 74.6641 13.1672 74.4236 13.6483C74.1895 14.1294 73.8514 14.5065 73.4094 14.7796Z" fill="#0D0700"/>
<path d="M35.4164 3.04738H38.4592L41.1811 12.9877L44.0766 3.04738H46.6123L49.7525 12.7882L52.3662 3.04738H55.1553L51.0399 17.403H48.4165L45.2231 7.88692L42.2919 17.403H39.6393L35.4164 3.04738Z" fill="#0D0700"/>
<path fill-rule="evenodd" clip-rule="evenodd" d="M59.649 17.6565C58.5891 17.663 57.6334 17.4289 56.7817 16.9543C55.9365 16.4732 55.2702 15.8067 54.7824 14.955C54.3014 14.1034 54.0608 13.1314 54.0608 12.039C54.0608 10.9793 54.3079 10.0203 54.8021 9.16212C55.2961 8.3039 55.9657 7.63424 56.811 7.15312C57.6562 6.672 58.5989 6.43144 59.6392 6.43144C60.8095 6.43144 61.8334 6.6915 62.7112 7.21163C63.5954 7.73176 64.2553 8.4697 64.691 9.42543C65.133 10.3747 65.2924 11.4637 65.1688 12.6925H56.8152C56.8385 13.182 56.9607 13.6274 57.1816 14.0286C57.4287 14.4707 57.7732 14.8152 58.2153 15.0623C58.6575 15.3094 59.1515 15.4329 59.6978 15.4329C60.1138 15.4264 60.5007 15.3549 60.8582 15.2184C61.2159 15.0754 61.5181 14.8836 61.7652 14.6429C62.0188 14.4024 62.1976 14.1294 62.3017 13.8238H65.0908C64.9218 14.5715 64.5837 15.2379 64.0766 15.823C63.5694 16.4017 62.9323 16.8535 62.1651 17.1786C61.3979 17.5037 60.5592 17.663 59.649 17.6565ZM57.1914 10.0106C57.0356 10.2823 56.9276 10.5748 56.8675 10.8883H62.4049C62.3648 10.4923 62.2425 10.1315 62.0383 9.80578C61.8042 9.42218 61.4857 9.12636 61.0826 8.91831C60.6795 8.70375 60.2244 8.59648 59.7173 8.59648C59.1776 8.59648 58.6868 8.72001 58.2446 8.96707C57.8025 9.21413 57.4514 9.56197 57.1914 10.0106Z" fill="#0D0700"/>
<path d="M79.5147 6.65577C79.5147 5.78456 79.7129 5.01086 80.1095 4.33469C80.5061 3.65203 81.062 3.12214 81.7772 2.74505C82.4988 2.36145 83.3409 2.16315 84.303 2.15016V4.51999C83.8544 4.52649 83.4708 4.62076 83.1523 4.80281C82.8402 4.97836 82.5996 5.23517 82.4306 5.57325C82.275 5.8845 82.191 6.24534 82.1787 6.65577H84.2445V8.90858H82.1771V17.403H79.5147V8.90858H77.7982V6.65577H79.5147Z" fill="#0D0700"/>
<path fill-rule="evenodd" clip-rule="evenodd" d="M94.7865 17.6369C93.7007 17.6369 92.7287 17.3996 91.8705 16.925C91.0188 16.4439 90.3492 15.7808 89.8615 14.9355C89.3804 14.0838 89.1398 13.1183 89.1398 12.039C89.1398 10.9533 89.3804 9.98453 89.8615 9.13281C90.3492 8.27459 91.0188 7.60818 91.8705 7.13357C92.7287 6.65895 93.7007 6.42164 94.7865 6.42164C95.8787 6.42164 96.854 6.65895 97.7122 7.13357C98.5769 7.60818 99.2499 8.27135 99.731 9.12306C100.212 9.97477 100.456 10.9468 100.462 12.039C100.456 13.1183 100.212 14.0838 99.731 14.9355C99.2563 15.7808 98.5867 16.4439 97.7219 16.925C96.8573 17.3996 95.8787 17.6369 94.7865 17.6369ZM94.7865 15.1891C95.3586 15.1891 95.8658 15.059 96.3078 14.799C96.75 14.5324 97.0913 14.1618 97.3319 13.6872C97.5724 13.2061 97.6927 12.6567 97.6927 12.039C97.6927 11.4149 97.5724 10.8622 97.3319 10.3811C97.0913 9.9 96.75 9.52942 96.3078 9.26935C95.8658 9.00278 95.3586 8.8695 94.7865 8.8695C94.2209 8.8695 93.717 9.00278 93.2748 9.26935C92.8393 9.52942 92.5011 9.9 92.2606 10.3811C92.0201 10.8622 91.9031 11.4149 91.9095 12.039C91.9095 12.6567 92.0298 13.2061 92.2704 13.6872C92.5174 14.1618 92.8555 14.5324 93.2846 14.799C93.7202 15.059 94.2209 15.1891 94.7865 15.1891Z" fill="#0D0700"/>
<path d="M103.339 6.65575H100.375L103.583 17.403H106.177L108.288 10.5387L110.566 17.403H113.121L116.34 6.65575H113.658L111.832 13.3452L109.814 6.65575H107.221L105.213 13.4925L103.339 6.65575Z" fill="#0D0700"/>
</svg>
