<svg width="71" height="37" viewBox="0 0 71 37" fill="none" xmlns="http://www.w3.org/2000/svg">
<g clip-path="url(#clip0_9216_61867)">
<path d="M67.4112 17.5815L67.3741 17.6187C67.6343 16.9125 68.1546 16.6523 68.6006 16.6523C69.2325 16.6523 69.79 17.1355 69.79 17.8417C69.79 17.9904 69.79 18.1762 69.7157 18.3992C68.4148 21.7444 65.6643 23.4541 62.9882 23.7143C61.7617 25.7957 59.7546 27.3196 56.8926 27.3196C52.8041 27.3196 50.9829 24.086 50.9829 20.555C50.9829 16.2063 53.7334 11.3744 58.3422 11.3744C59.3457 11.3744 60.2006 11.5975 60.9068 11.8948C62.9882 12.6753 64.3263 15.3886 64.3263 18.2877C64.3263 19.2169 64.2519 20.1461 64.0289 21.0382C65.4042 20.555 66.705 19.4399 67.4112 17.5815ZM59.6431 14.4222V14.3851C58.8254 14.3851 58.3422 15.4629 58.3422 16.7638C58.3422 18.6594 59.3829 20.4063 61.0183 21.0382C61.2785 20.2205 61.39 19.2913 61.39 18.2134C61.39 16.132 60.7581 14.4222 59.6431 14.4222ZM56.9298 24.6063C57.9705 24.6063 59.0112 24.1603 59.8289 23.2311C57.413 22.1532 55.8891 19.6258 55.8891 17.2098C55.8891 16.3921 56.0378 15.5373 56.2608 14.7939C54.7741 16.0205 53.9192 18.4364 53.9192 20.555C53.9192 23.3054 55.2201 24.6063 56.9298 24.6063Z" fill="white"/>
<path d="M51.5568 17.5815L51.5196 17.6187C51.7798 16.9125 52.2258 16.6152 52.6718 16.6152C53.3037 16.6152 53.9355 17.1727 53.9355 17.8789C53.9355 18.0647 53.8984 18.2134 53.824 18.3992C52.3745 21.9302 50.2187 26.0559 46.7621 28.4718L46.6878 29.2152C46.2789 33.6754 44.0117 36.5001 41.1497 36.5001C38.9939 36.5001 37.7302 35.0134 37.7302 33.2665C37.7302 30.1072 40.9638 28.955 43.9745 27.0223C44.0488 26.2417 44.086 25.3497 44.1231 24.3461C42.6364 25.9815 41.0382 26.6506 39.6258 26.6506C36.801 26.6506 34.4966 24.3461 34.4966 20.8152C34.4966 15.3886 38.0647 11.8205 42.0417 11.8205H42.0789C44.7922 11.8205 47.6913 13.27 47.6913 15.8718C47.6913 16.7267 47.3196 21.3727 47.0223 24.978C49.0293 23.0824 50.7019 19.9975 51.5568 17.5815ZM40.0346 23.9745C41.4099 23.9745 43.2683 23.1196 44.4205 18.9196C44.6063 17.9904 44.7178 17.1727 44.6807 16.2063C44.4577 15.2028 43.6028 14.6081 42.3762 14.6081C39.8488 14.6081 37.4329 17.024 37.4329 20.7037C37.4329 22.9338 38.4736 23.9745 40.0346 23.9745ZM41.447 33.7869H41.4842C42.2647 33.7869 43.1196 33.2665 43.6771 29.9214C42.0417 30.8877 40.5178 31.8541 40.5178 33.0063C40.5178 33.4895 40.8895 33.7869 41.447 33.7869Z" fill="white"/>
<path d="M35.1488 17.5815L35.1117 17.6187C35.3718 16.9125 35.8922 16.6523 36.3382 16.6523C36.9701 16.6523 37.5276 17.1355 37.5276 17.8417C37.5276 17.9904 37.5276 18.1762 37.4533 18.3992C36.1524 21.7444 33.4019 23.4541 30.7258 23.7143C29.4993 25.7957 27.4922 27.3196 24.6302 27.3196C20.5417 27.3196 18.7205 24.086 18.7205 20.555C18.7205 16.2063 21.4709 11.3744 26.0798 11.3744C27.0833 11.3744 27.9382 11.5975 28.6444 11.8948C30.7258 12.6753 32.0639 15.3886 32.0639 18.2877C32.0639 19.2169 31.9895 20.1461 31.7665 21.0382C33.1418 20.555 34.4426 19.4399 35.1488 17.5815ZM27.3807 14.4222V14.3851C26.563 14.3851 26.0798 15.4629 26.0798 16.7638C26.0798 18.6594 27.1205 20.4063 28.7559 21.0382C29.0161 20.2205 29.1276 19.2913 29.1276 18.2134C29.1276 16.132 28.4957 14.4222 27.3807 14.4222ZM24.6674 24.6063C25.7081 24.6063 26.7488 24.1603 27.5665 23.2311C25.1506 22.1532 23.6267 19.6258 23.6267 17.2098C23.6267 16.3921 23.7754 15.5373 23.9984 14.7939C22.5117 16.0205 21.6568 18.4364 21.6568 20.555C21.6568 23.3054 22.9577 24.6063 24.6674 24.6063Z" fill="white"/>
<path d="M20.6096 16.4083C20.0892 16.4083 19.6432 16.6685 19.3458 17.3747C18.3795 19.8278 16.3723 23.9907 14.328 23.9907C13.0408 23.9907 12.0447 23.6996 11.0381 23.4054C10.0101 23.105 8.97133 22.8013 7.60044 22.8013C7.11724 22.8013 6.4482 22.8757 5.81633 22.9872C7.71991 20.3914 8.43105 17.2477 9.12013 11.3054C7.82267 11.2228 6.76726 10.9831 5.99798 10.741C5.17633 18.2775 4.24327 21.1511 0.835693 23.9907C0.389666 24.3624 0.166656 24.8828 0.166656 25.4032C0.166656 26.2209 0.872869 26.9271 1.76493 26.9271C2.06228 26.9271 2.39679 26.8156 2.73131 26.6669C4.62693 25.812 5.77916 25.589 7.19158 25.589C8.08975 25.589 9.16449 25.8459 10.3152 26.1208C11.6406 26.4376 13.0667 26.7784 14.4396 26.7784C17.4502 26.7784 19.4202 23.8421 21.6131 18.1552C21.7247 17.9694 21.7618 17.7464 21.7618 17.5605C21.7618 16.8543 21.2043 16.4083 20.6096 16.4083Z" fill="white"/>
<path fill-rule="evenodd" clip-rule="evenodd" d="M6.18657 9.20287C6.85966 9.43784 7.91048 9.7114 9.27291 9.79233L9.49592 9.79222C13.696 9.79222 16.4465 7.1904 16.4465 4.06821C16.4465 2.06109 14.8854 0.5 12.6924 0.5C9.7561 0.5 7.71182 2.50712 6.67109 6.48419C5.37018 5.77798 4.47813 4.51424 4.0321 2.91598C3.80908 2.13543 3.32589 1.65223 2.65684 1.65223C1.83913 1.65223 1.31876 2.28411 1.31876 3.13899C1.31876 5.66648 3.28872 8.08245 6.18789 9.19752L6.18657 9.20287ZM9.71893 7.07889C10.2764 4.51424 11.1685 3.28767 12.3579 3.28767C12.9898 3.28767 13.3986 3.65936 13.3986 4.3284C13.3986 5.55497 12.0977 7.00455 9.71893 7.07889Z" fill="white"/>
</g>
<defs>
<clipPath id="clip0_9216_61867">
<rect width="70" height="36" fill="white" transform="translate(0.166656 0.5)"/>
</clipPath>
</defs>
</svg>
