<svg width="21" height="20" viewBox="0 0 21 20" fill="none" xmlns="http://www.w3.org/2000/svg">
<path d="M9.57088 1.11234C9.91462 0.295885 11.0854 0.295886 11.4291 1.11235L13.4579 5.93123C13.6029 6.27543 13.9306 6.51061 14.3067 6.5404L19.5727 6.95748C20.4649 7.02814 20.8267 8.12813 20.1469 8.7034L16.1348 12.0987C15.8482 12.3412 15.723 12.7218 15.8106 13.0843L17.0363 18.161C17.244 19.0211 16.2969 19.701 15.533 19.2401L11.0245 16.5196C10.7025 16.3252 10.2975 16.3252 9.97548 16.5196L5.46699 19.2401C4.70311 19.701 3.75596 19.0211 3.96363 18.161L5.18942 13.0843C5.27698 12.7218 5.15182 12.3412 4.86526 12.0987L0.853062 8.7034C0.173282 8.12813 0.535068 7.02814 1.42729 6.95748L6.69336 6.5404C7.0695 6.51061 7.39716 6.27543 7.54207 5.93123L9.57088 1.11234Z" fill="#0D0700"/>
</svg>
