<svg width="25" height="25" viewBox="0 0 25 25" fill="none" xmlns="http://www.w3.org/2000/svg">
<path d="M22.093 7.59168C21.9791 7.16908 21.7565 6.78368 21.4474 6.47385C21.1382 6.16401 20.7533 5.94054 20.331 5.82568C18.765 5.39568 12.5 5.38868 12.5 5.38868C12.5 5.38868 6.23599 5.38168 4.66899 5.79268C4.24692 5.91283 3.86282 6.13946 3.55356 6.45081C3.2443 6.76217 3.02028 7.1478 2.90299 7.57068C2.48999 9.13668 2.48599 12.3847 2.48599 12.3847C2.48599 12.3847 2.48199 15.6487 2.89199 17.1987C3.12199 18.0557 3.79699 18.7327 4.65499 18.9637C6.23699 19.3937 12.485 19.4007 12.485 19.4007C12.485 19.4007 18.75 19.4077 20.316 18.9977C20.7385 18.883 21.1237 18.6601 21.4336 18.3509C21.7436 18.0417 21.9674 17.6569 22.083 17.2347C22.497 15.6697 22.5 12.4227 22.5 12.4227C22.5 12.4227 22.52 9.15768 22.093 7.59168ZM10.496 15.3937L10.501 9.39368L15.708 12.3987L10.496 15.3937Z" fill="#0D0700"/>
</svg>
